<!DOCTYPE svg PUBLIC "-//W3C//DTD SVG 1.1//EN" "http://www.w3.org/Graphics/SVG/1.1/DTD/svg11.dtd">
<!-- Uploaded to: SVG Repo, www.svgrepo.com, Transformed by: SVG Repo Mixer Tools -->
<svg width="800px" height="800px" viewBox="0 0 24 24" fill="none" xmlns="http://www.w3.org/2000/svg">
<g id="SVGRepo_bgCarrier" stroke-width="0"/>
<g id="SVGRepo_tracerCarrier" stroke-linecap="round" stroke-linejoin="round"/>
<g id="SVGRepo_iconCarrier"> <path d="M19.83 8.00001C19.83 8.17001 19.83 8.35001 19.83 8.52001C19.8393 10.0302 19.5487 11.5272 18.9751 12.9242C18.4014 14.3212 17.5562 15.5904 16.4883 16.6583C15.4204 17.7262 14.1512 18.5714 12.7542 19.1451C11.3572 19.7187 9.86017 20.0093 8.34999 20C6.15213 20.0064 3.9992 19.3779 2.14999 18.19C2.47999 18.19 2.78999 18.19 3.14999 18.19C4.96345 18.19 6.72433 17.5808 8.14999 16.46C7.30493 16.4524 6.48397 16.1774 5.80489 15.6744C5.12581 15.1714 4.62349 14.4662 4.36999 13.66C4.62464 13.7006 4.88213 13.7207 5.13999 13.72C5.49714 13.7174 5.85281 13.6738 6.19999 13.59C5.2965 13.4056 4.48448 12.9147 3.90135 12.2003C3.31822 11.486 2.99981 10.5921 2.99999 9.67001C3.55908 9.97841 4.18206 10.153 4.81999 10.18C4.25711 9.80767 3.79593 9.30089 3.47815 8.7055C3.16038 8.11011 2.99604 7.44489 2.99999 6.77001C3.00124 6.06749 3.18749 5.37769 3.53999 4.77001C4.55172 6.01766 5.81423 7.03889 7.24575 7.76757C8.67727 8.49625 10.2459 8.91613 11.85 9.00001C11.7865 8.69737 11.753 8.38922 11.75 8.08001C11.7239 7.25689 11.9526 6.44578 12.4047 5.75746C12.8569 5.06913 13.5104 4.53714 14.2762 4.23411C15.0419 3.93109 15.8826 3.87181 16.6833 4.06437C17.484 4.25693 18.2057 4.69195 18.75 5.31001C19.655 5.12822 20.5214 4.78981 21.31 4.31001C21.0088 5.24317 20.3754 6.0332 19.53 6.53001C20.3337 6.44316 21.1194 6.23408 21.86 5.91001C21.3116 6.71097 20.6361 7.41694 19.86 8.00001H19.83Z" fill="#159971"/> </g>
</svg>